<svg version="1.1" xmlns="http://www.w3.org/2000/svg" xmlns:xlink="http://www.w3.org/1999/xlink" width="348.000000pt" height="348.000000pt" viewBox="0,0,256,256"><g fill="#ffffff" fill-rule="nonzero" stroke="none" stroke-width="1" stroke-linecap="butt" stroke-linejoin="miter" stroke-miterlimit="10" stroke-dasharray="" stroke-dashoffset="0" font-family="none" font-weight="none" font-size="none" text-anchor="none" style="mix-blend-mode: normal"><g transform="translate(0.00206,-0.14043) scale(0.73563,0.73563)"><g transform="translate(0,348) scale(0.1,-0.1)"><path d="M1551,3464c-119,-31 -213,-109 -268,-222c-25,-53 -27,-68 -31,-209l-4,-153h-223c-249,0 -249,0 -259,-67c-3,-21 -56,-490 -116,-1043c-61,-553 -129,-1169 -151,-1369c-38,-343 -39,-364 -23,-382c17,-18 55,-19 1264,-19c1208,0 1247,1 1264,19c16,18 15,45 -24,487c-22,258 -76,890 -120,1404c-67,770 -83,937 -97,952c-15,16 -38,18 -254,18h-239l1,134c0,107 -4,144 -19,189c-39,110 -111,189 -221,240c-63,30 -67,30 -245,33c-130,1 -196,-2 -235,-12zM1561,3335c-74,-84 -101,-178 -101,-345v-110h-61h-62l6,128c6,146 22,200 74,261c37,44 125,101 157,101c15,0 13,-5 -13,-35zM2000,3350c132,-67 180,-168 180,-377v-93h-59h-58l-5,143c-4,136 -6,146 -37,212c-18,39 -46,85 -64,103c-37,38 -19,44 43,12zM1824,3327c103,-74 136,-153 136,-327v-120h-201h-201l4,138c4,144 14,180 70,252c26,32 107,90 128,90c9,0 38,-15 64,-33zM1250,2687c0,-98 7,-117 45,-117c38,0 45,19 45,117v93h310h310v-89c0,-68 4,-93 16,-105c20,-21 43,-20 66,1c15,13 18,32 18,105v88h200c110,0 200,-2 200,-4c0,-3 -18,-245 -40,-538c-22,-293 -45,-591 -50,-663c-5,-71 -26,-341 -45,-600c-19,-259 -40,-531 -45,-605c-6,-74 -13,-165 -16,-202l-7,-68h-846h-847l8,68c4,37 66,600 138,1252c71,652 134,1221 140,1264c5,44 10,83 10,88c0,4 88,8 195,8h195zM2690,2762c0,-11 50,-596 110,-1301c61,-705 110,-1284 110,-1287c0,-3 -78,65 -174,150l-173,156l-7,113c-13,233 -57,1216 -58,1302c-1,79 42,692 58,833l5,52h65c56,0 64,-2 64,-18zM2450,767l13,-303l-43,-83c-23,-45 -43,-81 -45,-79c-1,2 10,170 26,373c15,204 28,376 28,383c1,6 3,12 4,12c2,0 10,-136 17,-303zM2698,228l142,-128h-225c-124,0 -225,2 -225,5c0,3 30,65 67,139c58,116 69,133 83,123c8,-7 79,-69 158,-139z"></path></g></g></g></svg>