<?xml version="1.0" standalone="no"?>
<!DOCTYPE svg PUBLIC "-//W3C//DTD SVG 20010904//EN"
 "http://www.w3.org/TR/2001/REC-SVG-20010904/DTD/svg10.dtd">
<svg version="1.0" xmlns="http://www.w3.org/2000/svg"
 width="348.000000pt" height="348.000000pt" viewBox="0 0 348.000000 348.000000"
 preserveAspectRatio="xMidYMid meet">

<g transform="translate(0.000000,348.000000) scale(0.100000,-0.100000)"
fill="#000000" stroke="none">
<path d="M1551 3464 c-119 -31 -213 -109 -268 -222 -25 -53 -27 -68 -31 -209
l-4 -153 -223 0 c-249 0 -249 0 -259 -67 -3 -21 -56 -490 -116 -1043 -61 -553
-129 -1169 -151 -1369 -38 -343 -39 -364 -23 -382 17 -18 55 -19 1264 -19
1208 0 1247 1 1264 19 16 18 15 45 -24 487 -22 258 -76 890 -120 1404 -67 770
-83 937 -97 952 -15 16 -38 18 -254 18 l-239 0 1 134 c0 107 -4 144 -19 189
-39 110 -111 189 -221 240 -63 30 -67 30 -245 33 -130 1 -196 -2 -235 -12z
m10 -129 c-74 -84 -101 -178 -101 -345 l0 -110 -61 0 -62 0 6 128 c6 146 22
200 74 261 37 44 125 101 157 101 15 0 13 -5 -13 -35z m439 15 c132 -67 180
-168 180 -377 l0 -93 -59 0 -58 0 -5 143 c-4 136 -6 146 -37 212 -18 39 -46
85 -64 103 -37 38 -19 44 43 12z m-176 -23 c103 -74 136 -153 136 -327 l0
-120 -201 0 -201 0 4 138 c4 144 14 180 70 252 26 32 107 90 128 90 9 0 38
-15 64 -33z m-574 -640 c0 -98 7 -117 45 -117 38 0 45 19 45 117 l0 93 310 0
310 0 0 -89 c0 -68 4 -93 16 -105 20 -21 43 -20 66 1 15 13 18 32 18 105 l0
88 200 0 c110 0 200 -2 200 -4 0 -3 -18 -245 -40 -538 -22 -293 -45 -591 -50
-663 -5 -71 -26 -341 -45 -600 -19 -259 -40 -531 -45 -605 -6 -74 -13 -165
-16 -202 l-7 -68 -846 0 -847 0 8 68 c4 37 66 600 138 1252 71 652 134 1221
140 1264 5 44 10 83 10 88 0 4 88 8 195 8 l195 0 0 -93z m1440 75 c0 -11 50
-596 110 -1301 61 -705 110 -1284 110 -1287 0 -3 -78 65 -174 150 l-173 156
-7 113 c-13 233 -57 1216 -58 1302 -1 79 42 692 58 833 l5 52 65 0 c56 0 64
-2 64 -18z m-240 -1995 l13 -303 -43 -83 c-23 -45 -43 -81 -45 -79 -1 2 10
170 26 373 15 204 28 376 28 383 1 6 3 12 4 12 2 0 10 -136 17 -303z m248
-539 l142 -128 -225 0 c-124 0 -225 2 -225 5 0 3 30 65 67 139 58 116 69 133
83 123 8 -7 79 -69 158 -139z"/>
</g>
</svg>
